<?xml version="1.0" encoding="UTF-8" standalone="no"?>
<!DOCTYPE svg PUBLIC "-//W3C//DTD SVG 1.1//EN"
 "http://www.w3.org/Graphics/SVG/1.1/DTD/svg11.dtd">
<!-- Generated by graphviz version 2.38.0 (20140413.2041)
 -->
<!-- Title: %3 Pages: 1 -->
<svg width="435pt" height="1245pt"
 viewBox="0.00 0.00 434.50 1245.00" xmlns="http://www.w3.org/2000/svg" xmlns:xlink="http://www.w3.org/1999/xlink">
<g id="graph0" class="graph" transform="scale(1 1) rotate(0) translate(4 1241)">
<title>%3</title>
<polygon fill="white" stroke="none" points="-4,4 -4,-1241 430.5,-1241 430.5,4 -4,4"/>
<!-- HandleMsgIosf -->
<g id="node1" class="node"><title>HandleMsgIosf</title>
<polygon fill="#0d1675" stroke="#0d1675" points="141,-1031 61,-1031 61,-968 141,-968 141,-1031"/>
<text text-anchor="middle" x="101" y="-1019" font-family="Arial" font-size="10.00" fill="#ffffff">model_server</text>
<text text-anchor="middle" x="101" y="-1008" font-family="Arial" font-size="10.00" fill="#ffffff">HandleMsgIosf</text>
<text text-anchor="middle" x="101" y="-997" font-family="Arial" font-size="10.00" fill="#ffffff">2.13%</text>
<text text-anchor="middle" x="101" y="-986" font-family="Arial" font-size="10.00" fill="#ffffff">(0.01%)</text>
<text text-anchor="middle" x="101" y="-975" font-family="Arial" font-size="10.00" fill="#ffffff">7718×</text>
</g>
<!-- WriteCSR64 -->
<g id="node2" class="node"><title>WriteCSR64</title>
<polygon fill="#0d1475" stroke="#0d1475" points="127,-928 53,-928 53,-865 127,-865 127,-928"/>
<text text-anchor="middle" x="90" y="-916" font-family="Arial" font-size="10.00" fill="#ffffff">model_server</text>
<text text-anchor="middle" x="90" y="-905" font-family="Arial" font-size="10.00" fill="#ffffff">WriteCSR64</text>
<text text-anchor="middle" x="90" y="-894" font-family="Arial" font-size="10.00" fill="#ffffff">1.76%</text>
<text text-anchor="middle" x="90" y="-883" font-family="Arial" font-size="10.00" fill="#ffffff">(0.00%)</text>
<text text-anchor="middle" x="90" y="-872" font-family="Arial" font-size="10.00" fill="#ffffff">54958×</text>
</g>
<!-- HandleMsgIosf&#45;&gt;WriteCSR64 -->
<g id="edge1" class="edge"><title>HandleMsgIosf&#45;&gt;WriteCSR64</title>
<path fill="none" stroke="#0d1475" stroke-width="0.5" d="M97.6698,-967.923C96.432,-956.557 95.0196,-943.589 93.747,-931.904"/>
<polygon fill="#0d1475" stroke="#0d1475" stroke-width="0.5" points="94.9537,-931.669 93.3569,-928.322 92.5181,-931.934 94.9537,-931.669"/>
<text text-anchor="middle" x="113.5" y="-951" font-family="Arial" font-size="10.00" fill="#0d1475">1.68%</text>
<text text-anchor="middle" x="113.5" y="-940" font-family="Arial" font-size="10.00" fill="#0d1475">52101×</text>
</g>
<!-- hlpModelWriteCSR64 -->
<g id="node4" class="node"><title>hlpModelWriteCSR64</title>
<polygon fill="#0d1475" stroke="#0d1475" points="125,-825 15,-825 15,-762 125,-762 125,-825"/>
<text text-anchor="middle" x="70" y="-813" font-family="Arial" font-size="10.00" fill="#ffffff">model_server</text>
<text text-anchor="middle" x="70" y="-802" font-family="Arial" font-size="10.00" fill="#ffffff">hlpModelWriteCSR64</text>
<text text-anchor="middle" x="70" y="-791" font-family="Arial" font-size="10.00" fill="#ffffff">1.76%</text>
<text text-anchor="middle" x="70" y="-780" font-family="Arial" font-size="10.00" fill="#ffffff">(0.00%)</text>
<text text-anchor="middle" x="70" y="-769" font-family="Arial" font-size="10.00" fill="#ffffff">54959×</text>
</g>
<!-- WriteCSR64&#45;&gt;hlpModelWriteCSR64 -->
<g id="edge3" class="edge"><title>WriteCSR64&#45;&gt;hlpModelWriteCSR64</title>
<path fill="none" stroke="#0d1475" stroke-width="0.5" d="M83.9451,-864.923C81.6945,-853.557 79.1265,-840.589 76.8127,-828.904"/>
<polygon fill="#0d1475" stroke="#0d1475" stroke-width="0.5" points="77.985,-828.517 76.1034,-825.322 75.5817,-828.993 77.985,-828.517"/>
<text text-anchor="middle" x="98.5" y="-848" font-family="Arial" font-size="10.00" fill="#0d1475">1.76%</text>
<text text-anchor="middle" x="98.5" y="-837" font-family="Arial" font-size="10.00" fill="#0d1475">54958×</text>
</g>
<!-- ProcessMessage -->
<g id="node3" class="node"><title>ProcessMessage</title>
<polygon fill="#0d1676" stroke="#0d1676" points="148,-1134 56,-1134 56,-1071 148,-1071 148,-1134"/>
<text text-anchor="middle" x="102" y="-1122" font-family="Arial" font-size="10.00" fill="#ffffff">model_server</text>
<text text-anchor="middle" x="102" y="-1111" font-family="Arial" font-size="10.00" fill="#ffffff">ProcessMessage</text>
<text text-anchor="middle" x="102" y="-1100" font-family="Arial" font-size="10.00" fill="#ffffff">2.21%</text>
<text text-anchor="middle" x="102" y="-1089" font-family="Arial" font-size="10.00" fill="#ffffff">(0.00%)</text>
<text text-anchor="middle" x="102" y="-1078" font-family="Arial" font-size="10.00" fill="#ffffff">8189×</text>
</g>
<!-- ProcessMessage&#45;&gt;HandleMsgIosf -->
<g id="edge2" class="edge"><title>ProcessMessage&#45;&gt;HandleMsgIosf</title>
<path fill="none" stroke="#0d1675" stroke-width="0.5" d="M101.697,-1070.92C101.585,-1059.56 101.456,-1046.59 101.341,-1034.9"/>
<polygon fill="#0d1675" stroke="#0d1675" stroke-width="0.5" points="102.565,-1034.81 101.305,-1031.32 100.115,-1034.83 102.565,-1034.81"/>
<text text-anchor="middle" x="116" y="-1054" font-family="Arial" font-size="10.00" fill="#0d1675">2.13%</text>
<text text-anchor="middle" x="116" y="-1043" font-family="Arial" font-size="10.00" fill="#0d1675">7718×</text>
</g>
<!-- hlpModelWriteCSR -->
<g id="node19" class="node"><title>hlpModelWriteCSR</title>
<polygon fill="#0d1475" stroke="#0d1475" points="119.5,-722 20.5,-722 20.5,-659 119.5,-659 119.5,-722"/>
<text text-anchor="middle" x="70" y="-710" font-family="Arial" font-size="10.00" fill="#ffffff">model_server</text>
<text text-anchor="middle" x="70" y="-699" font-family="Arial" font-size="10.00" fill="#ffffff">hlpModelWriteCSR</text>
<text text-anchor="middle" x="70" y="-688" font-family="Arial" font-size="10.00" fill="#ffffff">1.76%</text>
<text text-anchor="middle" x="70" y="-677" font-family="Arial" font-size="10.00" fill="#ffffff">(0.01%)</text>
<text text-anchor="middle" x="70" y="-666" font-family="Arial" font-size="10.00" fill="#ffffff">109918×</text>
</g>
<!-- hlpModelWriteCSR64&#45;&gt;hlpModelWriteCSR -->
<g id="edge17" class="edge"><title>hlpModelWriteCSR64&#45;&gt;hlpModelWriteCSR</title>
<path fill="none" stroke="#0d1475" stroke-width="0.5" d="M70,-761.923C70,-750.557 70,-737.589 70,-725.904"/>
<polygon fill="#0d1475" stroke="#0d1475" stroke-width="0.5" points="71.2251,-725.822 70,-722.322 68.7751,-725.822 71.2251,-725.822"/>
<text text-anchor="middle" x="89" y="-745" font-family="Arial" font-size="10.00" fill="#0d1475">1.76%</text>
<text text-anchor="middle" x="89" y="-734" font-family="Arial" font-size="10.00" fill="#0d1475">109918×</text>
</g>
<!-- __vsnprintf_chk -->
<g id="node5" class="node"><title>__vsnprintf_chk</title>
<polygon fill="#0d1976" stroke="#0d1976" points="358.5,-166 275.5,-166 275.5,-103 358.5,-103 358.5,-166"/>
<text text-anchor="middle" x="317" y="-154" font-family="Arial" font-size="10.00" fill="#ffffff">libc&#45;2.23.so</text>
<text text-anchor="middle" x="317" y="-143" font-family="Arial" font-size="10.00" fill="#ffffff">__vsnprintf_chk</text>
<text text-anchor="middle" x="317" y="-132" font-family="Arial" font-size="10.00" fill="#ffffff">2.89%</text>
<text text-anchor="middle" x="317" y="-121" font-family="Arial" font-size="10.00" fill="#ffffff">(0.27%)</text>
<text text-anchor="middle" x="317" y="-110" font-family="Arial" font-size="10.00" fill="#ffffff">3394058×</text>
</g>
<!-- vfprintf -->
<g id="node6" class="node"><title>vfprintf</title>
<polygon fill="#0d1675" stroke="#0d1675" points="350.5,-63 283.5,-63 283.5,-0 350.5,-0 350.5,-63"/>
<text text-anchor="middle" x="317" y="-51" font-family="Arial" font-size="10.00" fill="#ffffff">libc&#45;2.23.so</text>
<text text-anchor="middle" x="317" y="-40" font-family="Arial" font-size="10.00" fill="#ffffff">vfprintf</text>
<text text-anchor="middle" x="317" y="-29" font-family="Arial" font-size="10.00" fill="#ffffff">2.13%</text>
<text text-anchor="middle" x="317" y="-18" font-family="Arial" font-size="10.00" fill="#ffffff">(1.26%)</text>
<text text-anchor="middle" x="317" y="-7" font-family="Arial" font-size="10.00" fill="#ffffff">3394077×</text>
</g>
<!-- __vsnprintf_chk&#45;&gt;vfprintf -->
<g id="edge4" class="edge"><title>__vsnprintf_chk&#45;&gt;vfprintf</title>
<path fill="none" stroke="#0d1675" stroke-width="0.5" d="M317,-102.923C317,-91.5573 317,-78.5886 317,-66.9039"/>
<polygon fill="#0d1675" stroke="#0d1675" stroke-width="0.5" points="318.225,-66.822 317,-63.3221 315.775,-66.8221 318.225,-66.822"/>
<text text-anchor="middle" x="338.5" y="-86" font-family="Arial" font-size="10.00" fill="#0d1675">2.13%</text>
<text text-anchor="middle" x="338.5" y="-75" font-family="Arial" font-size="10.00" fill="#0d1675">3394058×</text>
</g>
<!-- fmErrorMsg -->
<g id="node7" class="node"><title>fmErrorMsg</title>
<polygon fill="#0d1174" stroke="#0d1174" points="329,-547 255,-547 255,-484 329,-484 329,-547"/>
<text text-anchor="middle" x="292" y="-535" font-family="Arial" font-size="10.00" fill="#ffffff">model_server</text>
<text text-anchor="middle" x="292" y="-524" font-family="Arial" font-size="10.00" fill="#ffffff">fmErrorMsg</text>
<text text-anchor="middle" x="292" y="-513" font-family="Arial" font-size="10.00" fill="#ffffff">1.02%</text>
<text text-anchor="middle" x="292" y="-502" font-family="Arial" font-size="10.00" fill="#ffffff">(0.01%)</text>
<text text-anchor="middle" x="292" y="-491" font-family="Arial" font-size="10.00" fill="#ffffff">949022×</text>
</g>
<!-- fmSnprintf_s -->
<g id="node8" class="node"><title>fmSnprintf_s</title>
<polygon fill="#0d1977" stroke="#0d1977" points="354,-372 280,-372 280,-309 354,-309 354,-372"/>
<text text-anchor="middle" x="317" y="-360" font-family="Arial" font-size="10.00" fill="#ffffff">model_server</text>
<text text-anchor="middle" x="317" y="-349" font-family="Arial" font-size="10.00" fill="#ffffff">fmSnprintf_s</text>
<text text-anchor="middle" x="317" y="-338" font-family="Arial" font-size="10.00" fill="#ffffff">2.95%</text>
<text text-anchor="middle" x="317" y="-327" font-family="Arial" font-size="10.00" fill="#ffffff">(0.11%)</text>
<text text-anchor="middle" x="317" y="-316" font-family="Arial" font-size="10.00" fill="#ffffff">3386126×</text>
</g>
<!-- fmErrorMsg&#45;&gt;fmSnprintf_s -->
<g id="edge5" class="edge"><title>fmErrorMsg&#45;&gt;fmSnprintf_s</title>
<path fill="none" stroke="#0d1174" stroke-width="0.5" d="M290.724,-483.789C290.406,-463.315 291.002,-435.879 295,-412 297.014,-399.967 300.571,-387.139 304.245,-375.769"/>
<polygon fill="#0d1174" stroke="#0d1174" stroke-width="0.5" points="305.459,-375.997 305.387,-372.29 303.131,-375.233 305.459,-375.997"/>
<text text-anchor="middle" x="314" y="-446.5" font-family="Arial" font-size="10.00" fill="#0d1174">1.00%</text>
<text text-anchor="middle" x="314" y="-435.5" font-family="Arial" font-size="10.00" fill="#0d1174">949022×</text>
</g>
<!-- fmVsnprintf_s -->
<g id="node13" class="node"><title>fmVsnprintf_s</title>
<polygon fill="#0d1976" stroke="#0d1976" points="355,-269 279,-269 279,-206 355,-206 355,-269"/>
<text text-anchor="middle" x="317" y="-257" font-family="Arial" font-size="10.00" fill="#ffffff">model_server</text>
<text text-anchor="middle" x="317" y="-246" font-family="Arial" font-size="10.00" fill="#ffffff">fmVsnprintf_s</text>
<text text-anchor="middle" x="317" y="-235" font-family="Arial" font-size="10.00" fill="#ffffff">2.84%</text>
<text text-anchor="middle" x="317" y="-224" font-family="Arial" font-size="10.00" fill="#ffffff">(0.11%)</text>
<text text-anchor="middle" x="317" y="-213" font-family="Arial" font-size="10.00" fill="#ffffff">3386126×</text>
</g>
<!-- fmSnprintf_s&#45;&gt;fmVsnprintf_s -->
<g id="edge8" class="edge"><title>fmSnprintf_s&#45;&gt;fmVsnprintf_s</title>
<path fill="none" stroke="#0d1976" stroke-width="0.5" d="M317,-308.923C317,-297.557 317,-284.589 317,-272.904"/>
<polygon fill="#0d1976" stroke="#0d1976" stroke-width="0.5" points="318.225,-272.822 317,-269.322 315.775,-272.822 318.225,-272.822"/>
<text text-anchor="middle" x="338.5" y="-292" font-family="Arial" font-size="10.00" fill="#0d1976">2.84%</text>
<text text-anchor="middle" x="338.5" y="-281" font-family="Arial" font-size="10.00" fill="#0d1976">3386126×</text>
</g>
<!-- fmLogMessage -->
<g id="node9" class="node"><title>fmLogMessage</title>
<polygon fill="#0d1676" stroke="#0d1676" points="416.5,-619 333.5,-619 333.5,-556 416.5,-556 416.5,-619"/>
<text text-anchor="middle" x="375" y="-607" font-family="Arial" font-size="10.00" fill="#ffffff">model_server</text>
<text text-anchor="middle" x="375" y="-596" font-family="Arial" font-size="10.00" fill="#ffffff">fmLogMessage</text>
<text text-anchor="middle" x="375" y="-585" font-family="Arial" font-size="10.00" fill="#ffffff">2.22%</text>
<text text-anchor="middle" x="375" y="-574" font-family="Arial" font-size="10.00" fill="#ffffff">(0.08%)</text>
<text text-anchor="middle" x="375" y="-563" font-family="Arial" font-size="10.00" fill="#ffffff">2436066×</text>
</g>
<!-- fmVLogMessage -->
<g id="node10" class="node"><title>fmVLogMessage</title>
<polygon fill="#0d1675" stroke="#0d1675" points="426.5,-475 337.5,-475 337.5,-412 426.5,-412 426.5,-475"/>
<text text-anchor="middle" x="382" y="-463" font-family="Arial" font-size="10.00" fill="#ffffff">model_server</text>
<text text-anchor="middle" x="382" y="-452" font-family="Arial" font-size="10.00" fill="#ffffff">fmVLogMessage</text>
<text text-anchor="middle" x="382" y="-441" font-family="Arial" font-size="10.00" fill="#ffffff">2.14%</text>
<text text-anchor="middle" x="382" y="-430" font-family="Arial" font-size="10.00" fill="#ffffff">(0.18%)</text>
<text text-anchor="middle" x="382" y="-419" font-family="Arial" font-size="10.00" fill="#ffffff">2437101×</text>
</g>
<!-- fmLogMessage&#45;&gt;fmVLogMessage -->
<g id="edge6" class="edge"><title>fmLogMessage&#45;&gt;fmVLogMessage</title>
<path fill="none" stroke="#0d1675" stroke-width="0.5" d="M376.519,-555.688C377.633,-533.079 379.148,-502.364 380.302,-478.945"/>
<polygon fill="#0d1675" stroke="#0d1675" stroke-width="0.5" points="381.535,-478.808 380.484,-475.252 379.088,-478.687 381.535,-478.808"/>
<text text-anchor="middle" x="400.5" y="-518.5" font-family="Arial" font-size="10.00" fill="#0d1675">2.13%</text>
<text text-anchor="middle" x="400.5" y="-507.5" font-family="Arial" font-size="10.00" fill="#0d1675">2436066×</text>
</g>
<!-- fmVLogMessage&#45;&gt;fmSnprintf_s -->
<g id="edge9" class="edge"><title>fmVLogMessage&#45;&gt;fmSnprintf_s</title>
<path fill="none" stroke="#0d1575" stroke-width="0.5" d="M362.321,-411.923C354.881,-400.361 346.373,-387.141 338.753,-375.301"/>
<polygon fill="#0d1575" stroke="#0d1575" stroke-width="0.5" points="339.76,-374.602 336.836,-372.322 337.7,-375.928 339.76,-374.602"/>
<text text-anchor="middle" x="377.5" y="-395" font-family="Arial" font-size="10.00" fill="#0d1575">1.95%</text>
<text text-anchor="middle" x="377.5" y="-384" font-family="Arial" font-size="10.00" fill="#0d1575">2437101×</text>
</g>
<!-- fmModelReset -->
<g id="node11" class="node"><title>fmModelReset</title>
<polygon fill="#fb1d01" stroke="#fb1d01" points="236.5,-1134 157.5,-1134 157.5,-1071 236.5,-1071 236.5,-1134"/>
<text text-anchor="middle" x="197" y="-1122" font-family="Arial" font-size="10.00" fill="#ffffff">model_server</text>
<text text-anchor="middle" x="197" y="-1111" font-family="Arial" font-size="10.00" fill="#ffffff">fmModelReset</text>
<text text-anchor="middle" x="197" y="-1100" font-family="Arial" font-size="10.00" fill="#ffffff">97.13%</text>
<text text-anchor="middle" x="197" y="-1089" font-family="Arial" font-size="10.00" fill="#ffffff">(0.00%)</text>
<text text-anchor="middle" x="197" y="-1078" font-family="Arial" font-size="10.00" fill="#ffffff">1×</text>
</g>
<!-- hlpModelReset -->
<g id="node12" class="node"><title>hlpModelReset</title>
<polygon fill="#fb1d01" stroke="#fb1d01" points="237.5,-1031 156.5,-1031 156.5,-968 237.5,-968 237.5,-1031"/>
<text text-anchor="middle" x="197" y="-1019" font-family="Arial" font-size="10.00" fill="#ffffff">model_server</text>
<text text-anchor="middle" x="197" y="-1008" font-family="Arial" font-size="10.00" fill="#ffffff">hlpModelReset</text>
<text text-anchor="middle" x="197" y="-997" font-family="Arial" font-size="10.00" fill="#ffffff">97.13%</text>
<text text-anchor="middle" x="197" y="-986" font-family="Arial" font-size="10.00" fill="#ffffff">(0.00%)</text>
<text text-anchor="middle" x="197" y="-975" font-family="Arial" font-size="10.00" fill="#ffffff">1×</text>
</g>
<!-- fmModelReset&#45;&gt;hlpModelReset -->
<g id="edge7" class="edge"><title>fmModelReset&#45;&gt;hlpModelReset</title>
<path fill="none" stroke="#fb1d01" stroke-width="3.89" d="M197,-1070.92C197,-1061.61 197,-1051.23 197,-1041.36"/>
<polygon fill="#fb1d01" stroke="#fb1d01" stroke-width="3.89" points="200.465,-1041.22 197,-1031.32 193.535,-1041.22 200.465,-1041.22"/>
<text text-anchor="middle" x="214" y="-1054" font-family="Arial" font-size="10.00" fill="#fb1d01">97.13%</text>
<text text-anchor="middle" x="214" y="-1043" font-family="Arial" font-size="10.00" fill="#fb1d01">1×</text>
</g>
<!-- hlpModelResetV2 -->
<g id="node17" class="node"><title>hlpModelResetV2</title>
<polygon fill="#fb1d01" stroke="#fb1d01" points="249.5,-928 156.5,-928 156.5,-865 249.5,-865 249.5,-928"/>
<text text-anchor="middle" x="203" y="-916" font-family="Arial" font-size="10.00" fill="#ffffff">model_server</text>
<text text-anchor="middle" x="203" y="-905" font-family="Arial" font-size="10.00" fill="#ffffff">hlpModelResetV2</text>
<text text-anchor="middle" x="203" y="-894" font-family="Arial" font-size="10.00" fill="#ffffff">97.13%</text>
<text text-anchor="middle" x="203" y="-883" font-family="Arial" font-size="10.00" fill="#ffffff">(0.92%)</text>
<text text-anchor="middle" x="203" y="-872" font-family="Arial" font-size="10.00" fill="#ffffff">1×</text>
</g>
<!-- hlpModelReset&#45;&gt;hlpModelResetV2 -->
<g id="edge13" class="edge"><title>hlpModelReset&#45;&gt;hlpModelResetV2</title>
<path fill="none" stroke="#fb1d01" stroke-width="3.89" d="M198.816,-967.923C199.369,-958.615 199.986,-948.232 200.573,-938.359"/>
<polygon fill="#fb1d01" stroke="#fb1d01" stroke-width="3.89" points="204.041,-938.41 201.169,-928.322 197.123,-937.999 204.041,-938.41"/>
<text text-anchor="middle" x="218" y="-951" font-family="Arial" font-size="10.00" fill="#fb1d01">97.13%</text>
<text text-anchor="middle" x="218" y="-940" font-family="Arial" font-size="10.00" fill="#fb1d01">1×</text>
</g>
<!-- fmVsnprintf_s&#45;&gt;__vsnprintf_chk -->
<g id="edge10" class="edge"><title>fmVsnprintf_s&#45;&gt;__vsnprintf_chk</title>
<path fill="none" stroke="#0d1876" stroke-width="0.5" d="M317,-205.923C317,-194.557 317,-181.589 317,-169.904"/>
<polygon fill="#0d1876" stroke="#0d1876" stroke-width="0.5" points="318.225,-169.822 317,-166.322 315.775,-169.822 318.225,-169.822"/>
<text text-anchor="middle" x="338.5" y="-189" font-family="Arial" font-size="10.00" fill="#0d1876">2.73%</text>
<text text-anchor="middle" x="338.5" y="-178" font-family="Arial" font-size="10.00" fill="#0d1876">3386125×</text>
</g>
<!-- hlpModelFfuClassifierWriteCSR -->
<g id="node14" class="node"><title>hlpModelFfuClassifierWriteCSR</title>
<polygon fill="#0d1776" stroke="#0d1776" points="422,-722 270,-722 270,-659 422,-659 422,-722"/>
<text text-anchor="middle" x="346" y="-710" font-family="Arial" font-size="10.00" fill="#ffffff">model_server</text>
<text text-anchor="middle" x="346" y="-699" font-family="Arial" font-size="10.00" fill="#ffffff">hlpModelFfuClassifierWriteCSR</text>
<text text-anchor="middle" x="346" y="-688" font-family="Arial" font-size="10.00" fill="#ffffff">2.44%</text>
<text text-anchor="middle" x="346" y="-677" font-family="Arial" font-size="10.00" fill="#ffffff">(0.08%)</text>
<text text-anchor="middle" x="346" y="-666" font-family="Arial" font-size="10.00" fill="#ffffff">792620×</text>
</g>
<!-- hlpModelFfuClassifierWriteCSR&#45;&gt;fmErrorMsg -->
<g id="edge11" class="edge"><title>hlpModelFfuClassifierWriteCSR&#45;&gt;fmErrorMsg</title>
<path fill="none" stroke="#0d1074" stroke-width="0.5" d="M322.402,-658.741C320.758,-655.871 319.257,-652.936 318,-650 304.259,-617.904 297.718,-578.348 294.643,-550.657"/>
<polygon fill="#0d1074" stroke="#0d1074" stroke-width="0.5" points="295.842,-550.35 294.25,-547.001 293.406,-550.612 295.842,-550.35"/>
<text text-anchor="middle" x="337" y="-642" font-family="Arial" font-size="10.00" fill="#0d1074">0.85%</text>
<text text-anchor="middle" x="337" y="-631" font-family="Arial" font-size="10.00" fill="#0d1074">792620×</text>
</g>
<!-- hlpModelFfuClassifierWriteCSR&#45;&gt;fmLogMessage -->
<g id="edge12" class="edge"><title>hlpModelFfuClassifierWriteCSR&#45;&gt;fmLogMessage</title>
<path fill="none" stroke="#0d1375" stroke-width="0.5" d="M354.78,-658.923C358.043,-647.557 361.767,-634.589 365.122,-622.904"/>
<polygon fill="#0d1375" stroke="#0d1375" stroke-width="0.5" points="366.362,-623.024 366.15,-619.322 364.007,-622.348 366.362,-623.024"/>
<text text-anchor="middle" x="385.5" y="-642" font-family="Arial" font-size="10.00" fill="#0d1375">1.44%</text>
<text text-anchor="middle" x="385.5" y="-631" font-family="Arial" font-size="10.00" fill="#0d1375">1585240×</text>
</g>
<!-- hlpModelGetRegisterAccess -->
<g id="node15" class="node"><title>hlpModelGetRegisterAccess</title>
<polygon fill="#0d1375" stroke="#0d1375" points="140,-619 0,-619 0,-556 140,-556 140,-619"/>
<text text-anchor="middle" x="70" y="-607" font-family="Arial" font-size="10.00" fill="#ffffff">model_server</text>
<text text-anchor="middle" x="70" y="-596" font-family="Arial" font-size="10.00" fill="#ffffff">hlpModelGetRegisterAccess</text>
<text text-anchor="middle" x="70" y="-585" font-family="Arial" font-size="10.00" fill="#ffffff">1.56%</text>
<text text-anchor="middle" x="70" y="-574" font-family="Arial" font-size="10.00" fill="#ffffff">(1.56%)</text>
<text text-anchor="middle" x="70" y="-563" font-family="Arial" font-size="10.00" fill="#ffffff">109918×</text>
</g>
<!-- hlpModelGetRegisterDefault -->
<g id="node16" class="node"><title>hlpModelGetRegisterDefault</title>
<polygon fill="#f25602" stroke="#f25602" points="271.5,-825 134.5,-825 134.5,-762 271.5,-762 271.5,-825"/>
<text text-anchor="middle" x="203" y="-813" font-family="Arial" font-size="10.00" fill="#ffffff">model_server</text>
<text text-anchor="middle" x="203" y="-802" font-family="Arial" font-size="10.00" fill="#ffffff">hlpModelGetRegisterDefault</text>
<text text-anchor="middle" x="203" y="-791" font-family="Arial" font-size="10.00" fill="#ffffff">91.23%</text>
<text text-anchor="middle" x="203" y="-780" font-family="Arial" font-size="10.00" fill="#ffffff">(91.23%)</text>
<text text-anchor="middle" x="203" y="-769" font-family="Arial" font-size="10.00" fill="#ffffff">25165824×</text>
</g>
<!-- hlpModelResetV2&#45;&gt;hlpModelGetRegisterDefault -->
<g id="edge14" class="edge"><title>hlpModelResetV2&#45;&gt;hlpModelGetRegisterDefault</title>
<path fill="none" stroke="#f25602" stroke-width="3.65" d="M203,-864.923C203,-855.517 203,-845.013 203,-835.047"/>
<polygon fill="#f25602" stroke="#f25602" stroke-width="3.65" points="206.36,-834.922 203,-825.322 199.64,-834.922 206.36,-834.922"/>
<text text-anchor="middle" x="227.5" y="-848" font-family="Arial" font-size="10.00" fill="#f25602">91.23%</text>
<text text-anchor="middle" x="227.5" y="-837" font-family="Arial" font-size="10.00" fill="#f25602">25165824×</text>
</g>
<!-- hlpModelWriteCSRInternal -->
<g id="node18" class="node"><title>hlpModelWriteCSRInternal</title>
<polygon fill="#0d2379" stroke="#0d2379" points="411.5,-825 280.5,-825 280.5,-762 411.5,-762 411.5,-825"/>
<text text-anchor="middle" x="346" y="-813" font-family="Arial" font-size="10.00" fill="#ffffff">model_server</text>
<text text-anchor="middle" x="346" y="-802" font-family="Arial" font-size="10.00" fill="#ffffff">hlpModelWriteCSRInternal</text>
<text text-anchor="middle" x="346" y="-791" font-family="Arial" font-size="10.00" fill="#ffffff">5.17%</text>
<text text-anchor="middle" x="346" y="-780" font-family="Arial" font-size="10.00" fill="#ffffff">(0.93%)</text>
<text text-anchor="middle" x="346" y="-769" font-family="Arial" font-size="10.00" fill="#ffffff">25275645×</text>
</g>
<!-- hlpModelResetV2&#45;&gt;hlpModelWriteCSRInternal -->
<g id="edge15" class="edge"><title>hlpModelResetV2&#45;&gt;hlpModelWriteCSRInternal</title>
<path fill="none" stroke="#0d2279" stroke-width="0.5" d="M246.293,-864.923C263.078,-853.067 282.333,-839.468 299.418,-827.4"/>
<polygon fill="#0d2279" stroke="#0d2279" stroke-width="0.5" points="300.209,-828.342 302.361,-825.322 298.795,-826.341 300.209,-828.342"/>
<text text-anchor="middle" x="312.5" y="-848" font-family="Arial" font-size="10.00" fill="#0d2279">4.99%</text>
<text text-anchor="middle" x="312.5" y="-837" font-family="Arial" font-size="10.00" fill="#0d2279">25165824×</text>
</g>
<!-- hlpModelWriteCSRInternal&#45;&gt;hlpModelFfuClassifierWriteCSR -->
<g id="edge18" class="edge"><title>hlpModelWriteCSRInternal&#45;&gt;hlpModelFfuClassifierWriteCSR</title>
<path fill="none" stroke="#0d1776" stroke-width="0.5" d="M346,-761.923C346,-750.557 346,-737.589 346,-725.904"/>
<polygon fill="#0d1776" stroke="#0d1776" stroke-width="0.5" points="347.225,-725.822 346,-722.322 344.775,-725.822 347.225,-725.822"/>
<text text-anchor="middle" x="365" y="-745" font-family="Arial" font-size="10.00" fill="#0d1776">2.44%</text>
<text text-anchor="middle" x="365" y="-734" font-family="Arial" font-size="10.00" fill="#0d1776">792620×</text>
</g>
<!-- hlpModelWriteCSR&#45;&gt;hlpModelGetRegisterAccess -->
<g id="edge16" class="edge"><title>hlpModelWriteCSR&#45;&gt;hlpModelGetRegisterAccess</title>
<path fill="none" stroke="#0d1375" stroke-width="0.5" d="M70,-658.923C70,-647.557 70,-634.589 70,-622.904"/>
<polygon fill="#0d1375" stroke="#0d1375" stroke-width="0.5" points="71.2251,-622.822 70,-619.322 68.7751,-622.822 71.2251,-622.822"/>
<text text-anchor="middle" x="89" y="-642" font-family="Arial" font-size="10.00" fill="#0d1375">1.56%</text>
<text text-anchor="middle" x="89" y="-631" font-family="Arial" font-size="10.00" fill="#0d1375">109918×</text>
</g>
<!-- main -->
<g id="node20" class="node"><title>main</title>
<polygon fill="#ff0000" stroke="#ff0000" points="192,-1237 118,-1237 118,-1174 192,-1174 192,-1237"/>
<text text-anchor="middle" x="155" y="-1225" font-family="Arial" font-size="10.00" fill="#ffffff">model_server</text>
<text text-anchor="middle" x="155" y="-1214" font-family="Arial" font-size="10.00" fill="#ffffff">main</text>
<text text-anchor="middle" x="155" y="-1203" font-family="Arial" font-size="10.00" fill="#ffffff">100.00%</text>
<text text-anchor="middle" x="155" y="-1192" font-family="Arial" font-size="10.00" fill="#ffffff">(0.00%)</text>
<text text-anchor="middle" x="155" y="-1181" font-family="Arial" font-size="10.00" fill="#ffffff">1×</text>
</g>
<!-- main&#45;&gt;ProcessMessage -->
<g id="edge19" class="edge"><title>main&#45;&gt;ProcessMessage</title>
<path fill="none" stroke="#0d1676" stroke-width="0.5" d="M138.954,-1173.92C132.939,-1162.46 126.068,-1149.36 119.895,-1137.6"/>
<polygon fill="#0d1676" stroke="#0d1676" stroke-width="0.5" points="120.885,-1136.85 118.174,-1134.32 118.716,-1137.99 120.885,-1136.85"/>
<text text-anchor="middle" x="148" y="-1157" font-family="Arial" font-size="10.00" fill="#0d1676">2.21%</text>
<text text-anchor="middle" x="148" y="-1146" font-family="Arial" font-size="10.00" fill="#0d1676">8189×</text>
</g>
<!-- main&#45;&gt;fmModelReset -->
<g id="edge20" class="edge"><title>main&#45;&gt;fmModelReset</title>
<path fill="none" stroke="#fb1d01" stroke-width="3.89" d="M167.715,-1173.92C171.667,-1164.42 176.086,-1153.79 180.268,-1143.74"/>
<polygon fill="#fb1d01" stroke="#fb1d01" stroke-width="3.89" points="183.581,-1144.79 184.183,-1134.32 177.182,-1142.13 183.581,-1144.79"/>
<text text-anchor="middle" x="197" y="-1157" font-family="Arial" font-size="10.00" fill="#fb1d01">97.13%</text>
<text text-anchor="middle" x="197" y="-1146" font-family="Arial" font-size="10.00" fill="#fb1d01">1×</text>
</g>
</g>
</svg>
